<svg class="logo" viewBox="0 0 398.25467 635.39874" xmlns="http://www.w3.org/2000/svg" role="img" aria-label="Fernecito">
<g class="recorte">
  <g class="tronco">
    <g class="obra" transform="translate(487.333334,-104.280342)">
      <path class="espuma espuma-1" fill="#ebd8c3" d="m -447.75759,739.18014 c -31.75354,-0.66199 -36.10877,-35.54167 -35.42295,-62.38457 -1.15457,-137.88591 -6.61472,-239.79565 -2.8441,-370.93842 -2.22223,-38.057 4.1368,-89.42258 91.0309,-98.69816 54.53096,-6.12068 114.0904,27.61587 169.47095,6.13005 31.03782,-10.77251 66.66583,-28.10509 98.56938,-10.25392 41.63762,21.51151 46.54864,85.63718 11.43918,115.50969 -36.99798,33.70506 -90.98307,29.06277 -137.3323,27.51661 -28.29506,-1.39832 -75.07608,-7.26609 -79.96896,31.31163 -4.89773,26.17718 23.11353,43.1168 46.18989,37.78943 31.28782,-5.55829 64.76781,-21.31455 95.87163,-6.16863 41.27518,17.5779 44.86991,81.0067 9.14728,106.14323 -20.78755,16.61263 -48.32174,12.36698 -72.56816,13.63795 -20.03124,2.51864 -47.84094,5.06071 -50.58125,27.2791 0.0202,46.82219 -0.0457,73.71965 0.49457,119.74148 0.33235,24.19742 3.08648,62.96563 -29.37434,63.48096 -30.42883,0.28149 -26.41381,0.49964 -56.35665,0.35817 -7.20933,-0.0752 -50.55919,-0.21666 -57.76507,-0.4546 z"/>
      <path class="liquido liquido-1" fill="#302528" d="m -446.67762,727.7781 c -16.15963,-0.31078 -24.3785,-16.94802 -25.03231,-33.99571 -1.409,-83.4224 -1.08353,-166.86744 -3.06784,-250.28099 0.39637,-5.2816 -1.27907,-25.65506 3.29088,-11.95651 18.62245,56.46935 89.51181,116.08013 153.39493,108.34983 1.20635,4.73274 0.97813,124.45609 -0.5104,162.51548 -1.28616,22.39309 -15.59305,25.95075 -30.34919,26.21929 -31.23806,0.50179 -56.27242,-0.0542 -87.51231,-0.65496 z"/>
      <path class="sombra sombra-1" fill="#d4b198" d="m -97.657762,234.17525 c -5.926688,16.33083 -14.532898,40.00228 -31.754568,52.41646 -31.68052,23.18269 -72.60873,27.61329 -110.72589,25.71459 -28.50395,-0.8141 -58.66754,-7.0194 -85.58437,5.7045 -21.93311,9.21837 -39.86085,32.04677 -37.54807,56.59487 1.68918,19.3897 16.68762,36.3943 35.87767,40.0731 7.68506,1.36781 20.74315,-1.46887 9.38267,-6.76978 -20.94728,-15.92987 -19.24168,-47.05522 2.97831,-57.48782 10.5121,-4.1764 22.25594,-3.3544 33.38884,-4.4612 35.19993,-0.829 70.61233,5.5046 105.60383,-0.8648 30.57176,-4.3535 63.45608,-19.64949 77.043838,-48.9611 8.83114,-19.18188 10.36627,-42.57639 1.33774,-61.95882 z"/>
      <path class="sombra sombra-2" fill="#d4b198" d="m -160.92263,441.68559 c -6.91142,13.6156 -11.66063,30.59993 -26.3155,38.13733 -22.65412,14.0088 -50.20261,13.7818 -75.89224,15.5321 -23.81889,0.9278 -49.54202,2.0227 -69.6241,16.473 -9.87815,7.5711 -13.87778,15.43372 -19.28542,26.29782 9.09857,3.26628 43.38389,4.93317 60.53618,-0.82006 31.64999,-11.9842 57.99537,-0.88366 89.96562,-11.13236 22.32031,-7.1635 42.02827,-26.3938 44.22182,-50.5376 1.2496,-11.4263 0.0849,-23.12644 -3.60636,-33.95023 z m -141.09988,99.62863 -0.0184,0.1054 z"/>
      <circle class="burbuja-esp burbuja-esp-1" fill="#d4b198" cx="-168.64836" cy="263.09677" r="11.392276"/>
      <ellipse class="burbuja-esp burbuja-esp-2" fill="#d4b198" cx="-265.28629" cy="294.52374" rx="7.4639049" ry="7.8567419"/>
      <circle class="burbuja-esp burbuja-esp-3" fill="#d4b198" cx="-425.56384" cy="295.30942" r="15.320647"/>
      <ellipse class="burbuja-esp burbuja-esp-4" fill="#d4b198" cx="-379.64816" cy="451.47754" rx="13.356462" ry="12.963624"/>
      <ellipse class="burbuja-esp burbuja-esp-5" fill="#d4b198" cx="-229.68137" cy="459.65915" rx="7.0710678" ry="6.6782308"/>
      <ellipse class="burbuja-liq burbuja-liq-1" fill="#d4b198" cx="-371.35233" cy="577.75928" rx="11.392276" ry="11.785113"/>
      <ellipse class="burbuja-liq burbuja-liq-2" fill="#d4b198" cx="-408.54861" cy="698.88391" rx="6.6782308" ry="6.2853937"/>
      <circle class="burbuja-liq burbuja-liq-3" fill="#d4b198" cx="-418.03055" cy="606.88904" r="10.999439"/>
      <ellipse class="burbuja-liq burbuja-liq-4" fill="#d4b198" cx="-398.44849" cy="653.37665" rx="7.8567419" ry="7.4639049"/>
      <circle class="burbuja-liq burbuja-liq-5" fill="#d4b198" cx="-425.78918" cy="542.9527" r="13.356462"/>
      <path class="suelta suelta-1" fill="#ebd8c3" d="m -145.19376,144.02251 c -12.50351,-4.16406 -17.76849,-21.83511 -9.17484,-31.98242 6.59977,-8.52506 20.17744,-10.47066 28.62662,-3.60335 7.69104,5.82755 10.6533,17.36723 5.69471,25.86564 -4.69087,8.60519 -15.83807,13.36287 -25.14649,9.72013 z"/>
      <path class="suelta suelta-2" fill="#ebd8c3" d="m -109.29397,175.18233 c -5.85058,-2.53717 -9.01093,-9.40971 -8.05494,-15.5704 0.7517,-5.52473 5.33225,-10.15281 10.74099,-11.28927 5.28847,-1.24237 11.44388,0.52904 14.61071,5.10692 4.72498,5.83305 3.58226,15.44682 -2.48241,19.91596 -4.19189,3.1015 -9.99331,3.839 -14.81435,1.83679 z"/>
      <path class="suelta suelta-3" fill="#ebd8c3" d="m -151.03537,175.26093 c -7.13099,-3.18939 -6.96444,-13.14717 0.27044,-16.1701 8.53726,-3.56709 16.0106,7.53926 9.46917,14.07241 -2.89551,2.89186 -6.31657,3.62868 -9.73961,2.09769 z"/>
      <g class="grupo-brillos" transform="translate(-113,-13)">
        <path class="brillo brillo-1" fill="#f3f0ea" d="m -181.47246,270.61687 c -21.08056,-1.57077 -52.76983,-5.00229 -43.88808,-21.03909 6.3402,-13.67599 26.4785,0.69984 50.38471,-0.80519 35.70638,0.60506 72.89032,0.40168 105.22535,-19.4142 17.575846,-15.19945 37.922361,2.45482 17.716317,15.74856 -37.871793,25.00961 -84.955587,25.95837 -129.438297,25.50992 z"/>
        <path class="brillo brillo-2" fill="#f3f0ea" d="m -197.16337,454.8117 c -4.93333,-4.93333 -1.48802,-13.09091 5.52889,-13.09091 4.31195,0 7.56202,3.31923 7.56202,7.72292 0,6.53462 -8.45661,10.0023 -13.09091,5.36799 z"/>
        <path class="brillo brillo-3" fill="#f3f0ea" d="m -161.77246,457.78049 c -7.4709,-1.40502 -10.18363,-12.53453 -4.43973,-17.37563 5.42956,-4.19995 12.52744,-5.13237 19.14543,-5.93309 6.97544,-0.6532 13.98564,-1.66052 20.54138,-4.2439 4.30377,-1.51266 8.83994,-3.97147 13.50725,-2.52512 4.72414,1.08203 9.34984,5.44209 8.46381,10.63523 -0.92112,5.92105 -6.39448,10.00307 -11.93758,11.32622 -11.61003,3.64472 -23.15168,8.42964 -35.46103,8.91476 -3.28872,0.10084 -6.59506,-0.12881 -9.81953,-0.79847 z"/>
        <ellipse class="brillo brillo-4" fill="#f3f0ea" cx="-247.73589" cy="245.62245" rx="11.755651" ry="11.402097"/>
      </g>
    </g>
  </g>
  <g class="brazos">
    <g class="obra" transform="translate(487.333334,-104.280342)">
      <path class="espuma espuma-1" fill="#ebd8c3" d="m -447.75759,739.18014 c -31.75354,-0.66199 -36.10877,-35.54167 -35.42295,-62.38457 -1.15457,-137.88591 -6.61472,-239.79565 -2.8441,-370.93842 -2.22223,-38.057 4.1368,-89.42258 91.0309,-98.69816 54.53096,-6.12068 114.0904,27.61587 169.47095,6.13005 31.03782,-10.77251 66.66583,-28.10509 98.56938,-10.25392 41.63762,21.51151 46.54864,85.63718 11.43918,115.50969 -36.99798,33.70506 -90.98307,29.06277 -137.3323,27.51661 -28.29506,-1.39832 -75.07608,-7.26609 -79.96896,31.31163 -4.89773,26.17718 23.11353,43.1168 46.18989,37.78943 31.28782,-5.55829 64.76781,-21.31455 95.87163,-6.16863 41.27518,17.5779 44.86991,81.0067 9.14728,106.14323 -20.78755,16.61263 -48.32174,12.36698 -72.56816,13.63795 -20.03124,2.51864 -47.84094,5.06071 -50.58125,27.2791 0.0202,46.82219 -0.0457,73.71965 0.49457,119.74148 0.33235,24.19742 3.08648,62.96563 -29.37434,63.48096 -30.42883,0.28149 -26.41381,0.49964 -56.35665,0.35817 -7.20933,-0.0752 -50.55919,-0.21666 -57.76507,-0.4546 z"/>
      <path class="liquido liquido-1" fill="#302528" d="m -446.67762,727.7781 c -16.15963,-0.31078 -24.3785,-16.94802 -25.03231,-33.99571 -1.409,-83.4224 -1.08353,-166.86744 -3.06784,-250.28099 0.39637,-5.2816 -1.27907,-25.65506 3.29088,-11.95651 18.62245,56.46935 89.51181,116.08013 153.39493,108.34983 1.20635,4.73274 0.97813,124.45609 -0.5104,162.51548 -1.28616,22.39309 -15.59305,25.95075 -30.34919,26.21929 -31.23806,0.50179 -56.27242,-0.0542 -87.51231,-0.65496 z"/>
      <path class="sombra sombra-1" fill="#d4b198" d="m -97.657762,234.17525 c -5.926688,16.33083 -14.532898,40.00228 -31.754568,52.41646 -31.68052,23.18269 -72.60873,27.61329 -110.72589,25.71459 -28.50395,-0.8141 -58.66754,-7.0194 -85.58437,5.7045 -21.93311,9.21837 -39.86085,32.04677 -37.54807,56.59487 1.68918,19.3897 16.68762,36.3943 35.87767,40.0731 7.68506,1.36781 20.74315,-1.46887 9.38267,-6.76978 -20.94728,-15.92987 -19.24168,-47.05522 2.97831,-57.48782 10.5121,-4.1764 22.25594,-3.3544 33.38884,-4.4612 35.19993,-0.829 70.61233,5.5046 105.60383,-0.8648 30.57176,-4.3535 63.45608,-19.64949 77.043838,-48.9611 8.83114,-19.18188 10.36627,-42.57639 1.33774,-61.95882 z"/>
      <path class="sombra sombra-2" fill="#d4b198" d="m -160.92263,441.68559 c -6.91142,13.6156 -11.66063,30.59993 -26.3155,38.13733 -22.65412,14.0088 -50.20261,13.7818 -75.89224,15.5321 -23.81889,0.9278 -49.54202,2.0227 -69.6241,16.473 -9.87815,7.5711 -13.87778,15.43372 -19.28542,26.29782 9.09857,3.26628 43.38389,4.93317 60.53618,-0.82006 31.64999,-11.9842 57.99537,-0.88366 89.96562,-11.13236 22.32031,-7.1635 42.02827,-26.3938 44.22182,-50.5376 1.2496,-11.4263 0.0849,-23.12644 -3.60636,-33.95023 z m -141.09988,99.62863 -0.0184,0.1054 z"/>
      <circle class="burbuja-esp burbuja-esp-1" fill="#d4b198" cx="-168.64836" cy="263.09677" r="11.392276"/>
      <ellipse class="burbuja-esp burbuja-esp-2" fill="#d4b198" cx="-265.28629" cy="294.52374" rx="7.4639049" ry="7.8567419"/>
      <circle class="burbuja-esp burbuja-esp-3" fill="#d4b198" cx="-425.56384" cy="295.30942" r="15.320647"/>
      <ellipse class="burbuja-esp burbuja-esp-4" fill="#d4b198" cx="-379.64816" cy="451.47754" rx="13.356462" ry="12.963624"/>
      <ellipse class="burbuja-esp burbuja-esp-5" fill="#d4b198" cx="-229.68137" cy="459.65915" rx="7.0710678" ry="6.6782308"/>
      <ellipse class="burbuja-liq burbuja-liq-1" fill="#d4b198" cx="-371.35233" cy="577.75928" rx="11.392276" ry="11.785113"/>
      <ellipse class="burbuja-liq burbuja-liq-2" fill="#d4b198" cx="-408.54861" cy="698.88391" rx="6.6782308" ry="6.2853937"/>
      <circle class="burbuja-liq burbuja-liq-3" fill="#d4b198" cx="-418.03055" cy="606.88904" r="10.999439"/>
      <ellipse class="burbuja-liq burbuja-liq-4" fill="#d4b198" cx="-398.44849" cy="653.37665" rx="7.8567419" ry="7.4639049"/>
      <circle class="burbuja-liq burbuja-liq-5" fill="#d4b198" cx="-425.78918" cy="542.9527" r="13.356462"/>
      <path class="suelta suelta-1" fill="#ebd8c3" d="m -145.19376,144.02251 c -12.50351,-4.16406 -17.76849,-21.83511 -9.17484,-31.98242 6.59977,-8.52506 20.17744,-10.47066 28.62662,-3.60335 7.69104,5.82755 10.6533,17.36723 5.69471,25.86564 -4.69087,8.60519 -15.83807,13.36287 -25.14649,9.72013 z"/>
      <path class="suelta suelta-2" fill="#ebd8c3" d="m -109.29397,175.18233 c -5.85058,-2.53717 -9.01093,-9.40971 -8.05494,-15.5704 0.7517,-5.52473 5.33225,-10.15281 10.74099,-11.28927 5.28847,-1.24237 11.44388,0.52904 14.61071,5.10692 4.72498,5.83305 3.58226,15.44682 -2.48241,19.91596 -4.19189,3.1015 -9.99331,3.839 -14.81435,1.83679 z"/>
      <path class="suelta suelta-3" fill="#ebd8c3" d="m -151.03537,175.26093 c -7.13099,-3.18939 -6.96444,-13.14717 0.27044,-16.1701 8.53726,-3.56709 16.0106,7.53926 9.46917,14.07241 -2.89551,2.89186 -6.31657,3.62868 -9.73961,2.09769 z"/>
      <g class="grupo-brillos" transform="translate(-113,-13)">
        <path class="brillo brillo-1" fill="#f3f0ea" d="m -181.47246,270.61687 c -21.08056,-1.57077 -52.76983,-5.00229 -43.88808,-21.03909 6.3402,-13.67599 26.4785,0.69984 50.38471,-0.80519 35.70638,0.60506 72.89032,0.40168 105.22535,-19.4142 17.575846,-15.19945 37.922361,2.45482 17.716317,15.74856 -37.871793,25.00961 -84.955587,25.95837 -129.438297,25.50992 z"/>
        <path class="brillo brillo-2" fill="#f3f0ea" d="m -197.16337,454.8117 c -4.93333,-4.93333 -1.48802,-13.09091 5.52889,-13.09091 4.31195,0 7.56202,3.31923 7.56202,7.72292 0,6.53462 -8.45661,10.0023 -13.09091,5.36799 z"/>
        <path class="brillo brillo-3" fill="#f3f0ea" d="m -161.77246,457.78049 c -7.4709,-1.40502 -10.18363,-12.53453 -4.43973,-17.37563 5.42956,-4.19995 12.52744,-5.13237 19.14543,-5.93309 6.97544,-0.6532 13.98564,-1.66052 20.54138,-4.2439 4.30377,-1.51266 8.83994,-3.97147 13.50725,-2.52512 4.72414,1.08203 9.34984,5.44209 8.46381,10.63523 -0.92112,5.92105 -6.39448,10.00307 -11.93758,11.32622 -11.61003,3.64472 -23.15168,8.42964 -35.46103,8.91476 -3.28872,0.10084 -6.59506,-0.12881 -9.81953,-0.79847 z"/>
        <ellipse class="brillo brillo-4" fill="#f3f0ea" cx="-247.73589" cy="245.62245" rx="11.755651" ry="11.402097"/>
      </g>
    </g>
  </g>
</g>
</svg>